---
title: 江蕙1999-一嘴干一杯台湾WAV整轨
date: 2022-05-26 06:46:10
categories: WAV车载音乐、镜像
tags: 华语中文
---
# 江蕙1999-一嘴干一杯[台湾][WAV整轨]

REM GENRE POP
REM DATE 1999
REM DISCID
A90C240C
REM COMMENT "ExactAudioCopy
v0.99pb5"
PERFORMER "江蕙"
TITLE "一嘴干一杯"
FILE
"江蕙.-.[一嘴干一杯](1999)[WAV].wav" WAVE
TRACK 01
AUDIO
TITLE "一嘴干一杯"
PERFORMER "江蕙"
INDEX 01 00:00:00
TRACK 02
AUDIO
TITLE "放袂开"
PERFORMER "江蕙"
INDEX 00 03:51:45
INDEX 01 03:55:12
TRACK 03
AUDIO
TITLE "再相会"
PERFORMER "江蕙"
INDEX 00 07:59:10
INDEX 01 08:02:50
TRACK 04
AUDIO
TITLE "家后"
PERFORMER "江蕙"
INDEX 00 12:51:20
INDEX 01 12:54:62
TRACK 05
AUDIO
TITLE "找无对手"
PERFORMER "江蕙"
INDEX 00 17:04:22
INDEX 01 17:07:65
TRACK 06
AUDIO
TITLE "想你到天光"
PERFORMER "江蕙"
INDEX 00 21:16:45
INDEX 01 21:20:12
TRACK 07
AUDIO
TITLE "歌声满天下"
PERFORMER "江蕙"
INDEX 00 25:36:65
INDEX 01 25:40:32
TRACK 08
AUDIO
TITLE "靠岸"
PERFORMER "江蕙"
INDEX 00 29:45:62
INDEX 01 29:49:30
TRACK 09
AUDIO
TITLE "啊！爱情"
PERFORMER "江蕙"
INDEX 00 34:42:47
INDEX 01 34:46:15
TRACK 10
AUDIO
TITLE "爱着什么"
PERFORMER "江蕙"
INDEX 00 38:46:42
INDEX 01 38:50:10
TRACK 11
AUDIO
TITLE "一嘴干一杯（卡拉OK伴唱版）"
PERFORMER "江蕙"
INDEX 00 43:02:00
INDEX 01 43:05:42
TRACK 12
AUDIO
TITLE "再相会（卡拉OK伴唱版）"
PERFORMER "江蕙"
INDEX 00 46:56:62
INDEX 01 47:00:30
下载地址：
江蕙1999-一嘴干一杯[台湾][WAV整轨].rar: https://url27.ctfile.com/f/9388027-564092742-e5ff61?p=559675
(访问密码: 559675)
中国民乐
https://url27.ctfile.com/d/9388027-29366147-0ff7ec?p=559675
（访问密码：559675）
古典,新世纪,班得瑞、钢琴、吉他、钢琴等纯音乐
https://url27.ctfile.com/d/9388027-29358653-b4064c?p=559675
（访问密码：559675）
网络流行歌曲速递.
https://url27.ctfile.com/d/9388027-29193281-ba4132?p=559675
（访问密码：559675）
明达顶级发烧精选
https://url27.ctfile.com/d/9388027-24653730-f50e92?p=559675
（访问密码：559675）
DJ电音舞曲,的士高, 交谊舞曲
https://url27.ctfile.com/d/9388027-17571203-eb9a6a?p=559675
（访问密码：559675）
纯音乐
https://url27.ctfile.com/d/9388027-30247851-00a191
（访问密码：559675）
一听钟情公司合辑
https://url27.ctfile.com/d/9388027-28089704-45eecf
（访问密码：559675）
群星WAV专辑
https://url27.ctfile.com/d/9388027-19437416-b18f0a?p=559675
（访问密码：559675）
大陆歌星
https://url27.ctfile.com/d/9388027-30247779-5328b7?p=559675
（访问密码：559675）
港台歌星
https://url27.ctfile.com/d/9388027-30073965-8ec8aa?p=559675
（访问密码：559675）
DTS多声道
https://url27.ctfile.com/d/9388027-29465289-d75aaf?p=559675
（访问密码：559675）
试音碟
https://url27.ctfile.com/d/9388027-29424388-72c40d?p=559675
（访问密码：559675）
滚石唱片
https://url27.ctfile.com/d/9388027-24721817-c99fb0
（访问密码：559675）
宝丽金唱片
https://url27.ctfile.com/d/9388027-29465211-2db889
（访问密码：559675）
瑞鸣音乐
https://url27.ctfile.com/d/9388027-29204837-66d4de
（访问密码：559675）
外  语音乐
https://url27.ctfile.com/d/9388027-39813360-64a61d
（访问密码：559675）
雨果唱片系列
https://url27.ctfile.com/d/9388027-29904760-0b4b97
（访问密码：559675）
城通网盘快速找到想要专辑的方法：
在城通网盘专辑文件夹中的升级会员下的有搜索两字，
在搜索空格里输入文件名或关键字，马上找到。
原文：[链接](https://blog.sina.com.cn/s/blog_1647c7e7601030xfm.html)